# xmcd
#
# Track frame offsets: 
#        150
#        12104
#        44968
#        83489
#        92186
#        120022
#        137685
#        147990
#        163713
#        169917
#        174811
#        183742
#        219432
#
# Disc length: 2931 seconds
#
# Revision: 2
# Processed by: cddbd v1.5.2PL0 Copyright (c) Steve Scherf et al.
# Submitted via: ExactAudioCopy v0.99pb5
#
DISCID=aa0b710d
DTITLE=Nils Petter Molvaer - Re-Vision
DYEAR=2008
DGENRE=Soundtrack
TTITLE0=Torn (from 'Hoppet')
TTITLE1=The Beginning (from 'Edy')
TTITLE2=Alone in the Bathtub (from 'Edy')
TTITLE3=Visitation (from 'Hoppet')
TTITLE4=Arctic Dub (from 'Frozen Heart')
TTITLE5=Perimeters
TTITLE6=Trumpet Player in the Backyard (from 'Edy')
TTITLE7=The End (from 'Edy')
TTITLE8=The Visitor (from 'Hoppet')
TTITLE9=Azads Theme (from 'Hoppet')
TTITLE10=Decisions (from 'Hoppet')
TTITLE11=Leaps and Bounds (from 'Hoppet')
TTITLE12=Data
EXTD=YEAR: 2008
EXTT0=
EXTT1=
EXTT2=
EXTT3=
EXTT4=
EXTT5=
EXTT6=
EXTT7=
EXTT8=
EXTT9=
EXTT10=
EXTT11=
EXTT12=
PLAYORDER=
